HIERARCHY
ROOT Hips
{
  OFFSET 56.4934 95.2255 -0.401949
  CHANNELS 6 Xposition Yposition Zposition Zrotation Xrotation Yrotation
  JOINT spine
  {
    OFFSET 0 7.96568 0.458067
    CHANNELS 3 Zrotation Xrotation Yrotation
    JOINT spine1
    {
      OFFSET 0 10.2431 0
      CHANNELS 3 Zrotation Xrotation Yrotation
      JOINT spine2
      {
        OFFSET 0 9.81475 0
        CHANNELS 3 Zrotation Xrotation Yrotation
        JOINT Neck
        {
          OFFSET 0 25.1986 1.20138
          CHANNELS 3 Zrotation Xrotation Yrotation
          JOINT Head
          {
            OFFSET 0 7.61315 0
            CHANNELS 3 Zrotation Xrotation Yrotation
            End Site
            {
              OFFSET 0 18.4281 -6.07733
            }
          }
        }
        JOINT RightShoulder
        {
          OFFSET -4.1327 10.5992 -0.575451
          CHANNELS 3 Zrotation Xrotation Yrotation
          JOINT RightArm
          {
            OFFSET 0 13.9018 0
            CHANNELS 3 Zrotation Xrotation Yrotation
            JOINT RightArmRoll
            {
              OFFSET 0 7.01789 0
              CHANNELS 3 Zrotation Xrotation Yrotation
              JOINT RightForeArm
              {
                OFFSET 0 20.4406 0
                CHANNELS 3 Zrotation Xrotation Yrotation
                JOINT RightForeArmRoll
                {
                  OFFSET 0 7.87515 0
                  CHANNELS 3 Zrotation Xrotation Yrotation
                  JOINT RightHand
                  {
                    OFFSET 0 15.8037 0
                    CHANNELS 3 Zrotation Xrotation Yrotation
                    End Site
                    {
                      OFFSET 0 0 0
                    }
                  }
                }
              }
            }
          }
        }
        JOINT LeftShoulder
        {
          OFFSET 4.1327 10.5992 -0.575451
          CHANNELS 3 Zrotation Xrotation Yrotation
          JOINT LeftArm
          {
            OFFSET 0 13.9018 0
            CHANNELS 3 Zrotation Xrotation Yrotation
            JOINT LeftArmRoll
            {
              OFFSET 0 7.01789 0
              CHANNELS 3 Zrotation Xrotation Yrotation
              JOINT LeftForeArm
              {
                OFFSET 0 20.4406 0
                CHANNELS 3 Zrotation Xrotation Yrotation
                JOINT LeftForeArmRoll
                {
                  OFFSET 0 7.87515 0
                  CHANNELS 3 Zrotation Xrotation Yrotation
                  JOINT LeftHand
                  {
                    OFFSET 0 15.8037 0
                    CHANNELS 3 Zrotation Xrotation Yrotation
                    End Site
                    {
                      OFFSET 0 0 0
                    }
                  }
                }
              }
            }
          }
        }
      }
    }
  }
  JOINT RightUpLeg
  {
    OFFSET -7.06048 -1.2947 -1.0861
    CHANNELS 3 Zrotation Xrotation Yrotation
    JOINT RightUpLegRoll
    {
      OFFSET 0 18.5308 0
      CHANNELS 3 Zrotation Xrotation Yrotation
      JOINT RightLeg
      {
        OFFSET 0 -22.9476 0
        CHANNELS 3 Zrotation Xrotation Yrotation
        JOINT RightLegRoll
        {
          OFFSET 0 23.0226 0
          CHANNELS 3 Zrotation Xrotation Yrotation
          JOINT RightFoot
          {
            OFFSET 0 19.1625 0
            CHANNELS 3 Zrotation Xrotation Yrotation
            JOINT RightToeBase
            {
              OFFSET 0 16.0188 0
              CHANNELS 3 Zrotation Xrotation Yrotation
              End Site
              {
                OFFSET 0.00678979 7.75782 -0.894206
              }
            }
          }
        }
      }
    }
  }
  JOINT LeftUpLeg
  {
    OFFSET 7.06048 -1.2947 -1.0861
    CHANNELS 3 Zrotation Xrotation Yrotation
    JOINT LeftUpLegRoll
    {
      OFFSET 0 18.5309 0
      CHANNELS 3 Zrotation Xrotation Yrotation
      JOINT LeftLeg
      {
        OFFSET 0 22.9475 0
        CHANNELS 3 Zrotation Xrotation Yrotation
        JOINT LeftLegRoll
        {
          OFFSET 0 23.2355 0
          CHANNELS 3 Zrotation Xrotation Yrotation
          JOINT LeftFoot
          {
            OFFSET 0 18.9496 0
            CHANNELS 3 Zrotation Xrotation Yrotation
            JOINT LeftToeBase
            {
              OFFSET 0 16.0188 0
              CHANNELS 3 Zrotation Xrotation Yrotation
              End Site
              {
                OFFSET -0.0304289 7.75781 -0.894207
              }
            }
          }
        }
      }
    }
  }
}
MOTION
Frames: 10
Frame Time: 0.00208333
59.0387 95.0521 -1.79291 4.92356 0.772188 76.515 -0.628864 -0.114031 0.7386 -1.26698 3.76263 1.55337 -1.2875 5.40721 1.57567 -36.5068 -9.07128 4.02732 24.1237 20.9672 -0.942369 38.3041 7.02773 9.07131 151.067 38.1568 -33.2659 1.56578e-006 -8.10407e-007 4.8495e-006 9.17419 7.81665 -1.76861 2.6569e-006 -5.07864e-006 -3.00971 8.03006 -4.95102 0.697541 -74.5158 -22.69 12.1349 -95.5753 26.5332 7.75396 3.36317e-006 -3.81779e-006 -9.04359e-006 -18.1087 25.3681 5.03829 -1.1867e-006 1.19096e-006 3.00001 -8.02931 -4.95097 -0.69754 177.267 -9.35046 4.73488 180 7.01491e-015 178.702 179.184 17.7472 179.434 7.09568e-006 -4.46019e-006 0.705203 -26.1604 74.7659 27.6819 8.57527 34.674 -2.4154 179.988 11.7283 4.0587 4.54188e-006 -4.6773e-006 -0.946686 0.369967 -13.2735 0.431126 -6.63714e-007 -6.38419e-006 -0.113927 18.4326 67.6053 -19.22 -8.13649 25.2327 3.48774 
59.036 95.0494 -1.79815 4.9182 0.807135 76.6182 -0.625807 -0.1123 0.742478 -1.26072 3.76656 1.56169 -1.28133 5.41115 1.58386 -36.4233 -8.95447 4.07569 24.0216 20.9852 -0.921611 38.4508 7.00951 9.01605 150.821 37.9543 -32.8511 1.56578e-006 -8.10406e-007 4.8495e-006 9.1302 7.36132 -1.70871 2.6569e-006 -5.07864e-006 -3.00971 8.03006 -4.95102 0.697541 -74.5389 -22.6592 12.1172 -95.508 26.5113 7.56225 3.36317e-006 -3.81779e-006 -9.04359e-006 -18.0265 25.125 4.9698 -1.1867e-006 1.19096e-006 3.00001 -8.02931 -4.95097 -0.69754 177.259 -9.37268 4.7392 180 7.01491e-015 178.703 179.181 17.7052 179.435 7.09568e-006 -4.46019e-006 0.703806 -26.1791 74.7762 27.701 8.5781 34.6709 -2.43194 179.925 11.7375 4.12209 4.54188e-006 -4.6773e-006 -0.945019 0.394211 -13.2413 0.433128 -6.63714e-007 -6.38419e-006 -0.113395 18.4323 67.6036 -19.2186 -8.13649 25.2327 3.48774 
59.0199 95.0606 -1.81349 4.91181 0.840515 76.7206 -0.622633 -0.110714 0.746456 -1.25421 3.77023 1.57014 -1.27491 5.41482 1.59221 -36.3377 -8.83882 4.12227 23.9213 21.0021 -0.901738 38.6001 6.99 8.95926 150.571 37.7505 -32.4302 1.56578e-006 -8.10406e-007 4.8495e-006 9.08275 6.91606 -1.65033 2.6569e-006 -5.07864e-006 -3.00971 8.03006 -4.95102 0.697541 -74.5608 -22.6279 12.0994 -95.4415 26.4877 7.36736 3.36317e-006 -3.81779e-006 -9.04359e-006 -17.9414 24.8811 4.90121 -1.1867e-006 1.19096e-006 3.00001 -8.02931 -4.95097 -0.69754 177.252 -9.39342 4.74275 180 7.01492e-015 178.705 179.178 17.6641 179.436 7.09568e-006 -4.46019e-006 0.702371 -26.196 74.7855 27.7181 8.58099 34.6692 -2.44855 179.863 11.7478 4.18479 4.54188e-006 -4.6773e-006 -0.943333 0.418542 -13.2088 0.435065 -6.63714e-007 -6.38419e-006 -0.112738 18.4313 67.6009 -19.2164 -8.13649 25.2327 3.48774 
59.0208 95.0494 -1.84187 4.90427 0.872109 76.8221 -0.619327 -0.109296 0.750532 -1.24744 3.77357 1.57868 -1.26824 5.41816 1.60069 -36.2497 -8.7239 4.16715 23.8231 21.0169 -0.882551 38.7528 6.9691 8.90066 150.316 37.5448 -32.0026 1.56578e-006 -8.10406e-007 4.8495e-006 9.03258 6.48342 -1.59399 2.6569e-006 -5.07864e-006 -3.00971 8.03006 -4.95102 0.697541 -74.5807 -22.5961 12.0816 -95.3765 26.4619 7.17045 3.36317e-006 -3.81779e-006 -9.04359e-006 -17.854 24.6375 4.8329 -1.1867e-006 1.19096e-006 3.00001 -8.02931 -4.95097 -0.69754 177.247 -9.41249 4.74554 180 7.01492e-015 178.706 179.175 17.6242 179.437 7.09568e-006 -4.46019e-006 0.700912 -26.211 74.7938 27.7333 8.58401 34.6692 -2.46535 179.803 11.7597 4.24645 4.54188e-006 -4.6773e-006 -0.941627 0.442745 -13.1765 0.43691 -6.63714e-007 -6.38419e-006 -0.111944 18.4295 67.5971 -19.2133 -8.13649 25.2327 3.48774 
59.0071 95.0618 -1.85081 4.89544 0.901707 76.9227 -0.615874 -0.108069 0.754705 -1.24039 3.77653 1.58729 -1.26128 5.42112 1.60927 -36.1592 -8.60929 4.21039 23.7272 21.0284 -0.863852 38.9097 6.94669 8.83996 150.055 37.3365 -31.568 1.56578e-006 -8.10406e-007 4.8495e-006 8.98044 6.06596 -1.5402 2.6569e-006 -5.07864e-006 -3.00971 8.03006 -4.95102 0.697541 -74.5977 -22.564 12.0641 -95.3136 26.4337 6.97269 3.36317e-006 -3.81779e-006 -9.04359e-006 -17.7645 24.3954 4.76524 -1.1867e-006 1.19096e-006 3.00001 -8.02931 -4.95097 -0.69754 177.244 -9.4297 4.74758 180 7.01492e-015 178.707 179.172 17.5861 179.437 7.09568e-006 -4.46019e-006 0.699442 -26.2242 74.8012 27.7465 8.58718 34.6714 -2.48245 179.745 11.7737 4.30671 4.54188e-006 -4.6773e-006 -0.9399 0.466607 -13.1449 0.438633 -6.63714e-007 -6.38419e-006 -0.111 18.4266 67.592 -19.2092 -8.13649 25.2327 3.48774 
58.9814 95.0627 -1.87301 4.88518 0.929106 77.0223 -0.612259 -0.107056 0.758972 -1.23305 3.77906 1.59592 -1.25404 5.42365 1.61792 -36.0662 -8.49455 4.25206 23.6337 21.0356 -0.845446 39.0717 6.92266 8.77687 149.786 37.1251 -31.126 1.56578e-006 -8.10406e-007 4.8495e-006 8.92701 5.66622 -1.48947 2.6569e-006 -5.07864e-006 -3.00971 8.03006 -4.95102 0.697541 -74.611 -22.5318 12.047 -95.2538 26.4025 6.77526 3.36317e-006 -3.81779e-006 -9.04359e-006 -17.6732 24.156 4.69859 -1.1867e-006 1.19096e-006 3.00001 -8.02931 -4.95097 -0.69754 177.242 -9.44487 4.74887 180 7.01493e-015 178.709 179.168 17.5501 179.438 7.09568e-006 -4.46019e-006 0.697974 -26.2357 74.8076 27.7579 8.59056 34.6761 -2.49996 179.69 11.7903 4.36522 4.54188e-006 -4.6773e-006 -0.938148 0.489914 -13.1145 0.440205 -6.63714e-007 -6.38419e-006 -0.109893 18.4225 67.5856 -19.204 -8.13649 25.2327 3.48774 
58.9816 95.0476 -1.89161 4.87336 0.954111 77.1208 -0.608467 -0.106279 0.763333 -1.2254 3.78111 1.60454 -1.24649 5.4257 1.62661 -35.9704 -8.37925 4.29223 23.5429 21.0374 -0.827135 39.2395 6.89687 8.71111 149.507 36.9099 -30.6762 1.56578e-006 -8.10406e-007 4.8495e-006 8.87298 5.28676 -1.4423 2.6569e-006 -5.07864e-006 -3.00971 8.03006 -4.95102 0.697541 -74.6196 -22.4994 12.0305 -95.1976 26.3681 6.57931 3.36317e-006 -3.81779e-006 -9.04359e-006 -17.5804 23.9205 4.63331 -1.1867e-006 1.19096e-006 3.00001 -8.02931 -4.95097 -0.69754 177.243 -9.4578 4.74942 180 7.01493e-015 178.71 179.164 17.5166 179.439 7.09568e-006 -4.46019e-006 0.69652 -26.2456 74.8133 27.7675 8.59418 34.6837 -2.51799 179.637 11.8101 4.42162 4.54188e-006 -4.6773e-006 -0.936372 0.512451 -13.0858 0.441597 -6.63714e-007 -6.38419e-006 -0.108611 18.4171 67.5777 -19.1975 -8.13649 25.2327 3.48774 
58.9663 95.0501 -1.8961 4.85985 0.976532 77.2182 -0.604485 -0.10576 0.767784 -1.21743 3.78263 1.61312 -1.23861 5.42722 1.63532 -35.8717 -8.26296 4.33098 23.4549 21.0327 -0.808724 39.414 6.86922 8.64238 149.218 36.6902 -30.2183 1.56578e-006 -8.10406e-007 4.8495e-006 8.81903 4.93013 -1.39921 2.6569e-006 -5.07864e-006 -3.00971 8.03006 -4.95102 0.697541 -74.6229 -22.4672 12.0148 -95.1459 26.3302 6.38603 3.36317e-006 -3.81779e-006 -9.04359e-006 -17.4863 23.6901 4.56977 -1.1867e-006 1.19096e-006 3.00001 -8.02931 -4.95097 -0.69754 177.245 -9.46831 4.74926 180 7.01493e-015 178.711 179.16 17.4861 179.44 7.09568e-006 -4.46019e-006 0.695094 -26.2537 74.8181 27.7753 8.5981 34.6945 -2.53667 179.586 11.8334 4.47556 4.54188e-006 -4.6773e-006 -0.93457 0.534005 -13.0591 0.442781 -6.63714e-007 -6.38419e-006 -0.107141 18.4104 67.5681 -19.1897 -8.13649 25.2327 3.48774 
58.9511 95.0411 -1.90923 4.84491 0.996155 77.3149 -0.600247 -0.105432 0.772555 -1.20899 3.78378 1.6221 -1.23026 5.42837 1.64452 -35.7694 -8.14649 4.36714 23.3704 21.0233 -0.791571 39.5969 6.83964 8.57012 148.919 36.4648 -29.7456 1.56578e-006 -8.10406e-007 4.8495e-006 8.75994 4.59149 -1.35893 2.6569e-006 -5.07864e-006 -3.00966 8.03006 -4.95102 0.697541 -74.6221 -22.4347 11.9995 -95.0978 26.2899 6.19275 3.36317e-006 -3.81779e-006 -9.04359e-006 -17.3899 23.461 4.50677 -1.1867e-006 1.19096e-006 3.00001 -8.02931 -4.95097 -0.69754 177.251 -9.47692 4.74794 180 7.01494e-015 178.712 179.155 17.4587 179.441 7.09568e-006 -4.46019e-006 0.693669 -26.2585 74.8212 27.7794 8.60234 34.7102 -2.55582 179.539 11.8597 4.52736 4.54188e-006 -4.6773e-006 -0.932729 0.555033 -13.0336 0.443751 -6.63714e-007 -6.38419e-006 -0.105412 18.4018 67.5563 -19.18 -8.13649 25.2327 3.48774 
58.9448 95.0409 -1.92387 4.8289 1.01311 77.4112 -0.595722 -0.105216 0.777816 -1.19997 3.78474 1.63183 -1.22135 5.42933 1.65459 -35.663 -8.03094 4.39978 23.2899 21.0119 -0.776899 39.7886 6.80823 8.49427 148.61 36.2336 -29.2539 1.56578e-006 -8.10406e-007 4.8495e-006 8.69103 4.26433 -1.31993 2.6569e-006 -5.07864e-006 -3.00952 8.03006 -4.95102 0.697541 -74.6193 -22.4013 11.984 -95.0519 26.2485 5.9962 3.36317e-006 -3.81779e-006 -9.04359e-006 -17.2896 23.2294 4.44305 -1.1867e-006 1.19096e-006 3.00001 -8.02931 -4.95097 -0.69754 177.259 -9.48423 4.74515 180 7.01494e-015 178.713 179.151 17.434 179.442 7.09568e-006 -4.46019e-006 0.692207 -26.2583 74.8216 27.7783 8.60689 34.7312 -2.57521 179.495 11.8878 4.57767 4.54188e-006 -4.6773e-006 -0.930844 0.576118 -13.0079 0.444538 -6.63714e-007 -6.38419e-006 -0.103389 18.3914 67.5422 -19.1684 -8.13649 25.2327 3.48774 
